<?xml version="1.0" encoding="utf-8"?>
<!-- Generator: Adobe Illustrator 17.0.0, SVG Export Plug-In . SVG Version: 6.00 Build 0)  -->
<!DOCTYPE svg PUBLIC "-//W3C//DTD SVG 1.1//EN" "http://www.w3.org/Graphics/SVG/1.1/DTD/svg11.dtd">
<svg version="1.1" id="Camada_1" xmlns="http://www.w3.org/2000/svg" xmlns:xlink="http://www.w3.org/1999/xlink" x="0px" y="0px"
	 width="64px" height="64px" viewBox="0 0 64 64" enable-background="new 0 0 64 64" xml:space="preserve">
<g>
	<path d="M31.346,59.272c-1.637-2.155-0.764-5.234-3.61-6.567c-2.427-1.137-4.364-1.662-6.64,0.141
		c-0.967,0.766-2.465,2.578-3.527,0.919c-0.943-1.471,1.17-2.363,2.289-2.988c2.693-1.505,3.013-3.855,2.899-6.54
		c-0.2-4.701-4.795-7.418-8.924-5.276c-1.05,0.545-2.381,2.166-3.313,0.866c-1.231-1.717,0.964-2.268,1.984-2.999
		c4.56-3.27,4.591-6.912,0.052-10.407c-0.934-0.72-2.835-1.367-1.901-2.759c0.951-1.417,2.244,0.159,3.272,0.723
		c2.643,1.449,7.208,0.47,8.937-1.988c1.404-1.995,0.612-7.317-1.346-8.957c-0.434-0.364-0.959-0.627-1.365-1.016
		c-0.74-0.709-2.465-1.208-1.384-2.542c0.95-1.172,2.048,0.121,2.952,0.658c5.361,3.187,8.27,1.85,9.696-4.483
		c0.205-0.909,0.118-2.231,1.535-2.074c1.055,0.117,0.944,1.231,1.084,2.051c1.133,6.637,4.052,8.091,9.98,5.036
		c0.911-0.47,2.103-1.649,2.908-0.183c0.591,1.075-0.743,1.634-1.497,2.231c-5.929,4.693-6.083,7.568-0.701,12.302
		c0.796,0.7,2.412,1.442,1.527,2.595c-1.083,1.41-2.396-0.023-3.231-0.777c-2.219-2.005-4.219-1.468-6.583-0.211
		c-2.497,1.328-3.382,3.139-3.18,5.857c0.299,4.015,4.855,6.917,8.582,5.401c1.166-0.474,2.558-2.376,3.592-0.59
		c0.789,1.362-1.28,1.858-2.223,2.574c-3.988,3.027-4.131,7.568-0.291,10.594c0.557,0.439,1.147,0.838,1.695,1.288
		c0.654,0.538,1.526,1.194,0.9,2.069c-0.629,0.879-1.635,0.354-2.253-0.189c-2.769-2.438-5.372-2.85-8.771-0.732
		C32.133,54.768,33.047,57.402,31.346,59.272z"/>
</g>
</svg>
